<svg xmlns="http://www.w3.org/2000/svg" xmlns:xlink="http://www.w3.org/1999/xlink" width="463" zoomAndPan="magnify" viewBox="0 0 347.25 101.249998" height="135" preserveAspectRatio="xMidYMid meet" version="1.0"><defs><g/><clipPath id="d3f364763e"><path d="M 2 4.65625 L 101 4.65625 L 101 95 L 2 95 Z M 2 4.65625 " clip-rule="nonzero"/></clipPath></defs><g fill="#dbdbdb" fill-opacity="1"><g transform="translate(114.410425, 71.526368)"><g><path d="M 22.023438 -18.515625 C 19.890625 -22.367188 16.242188 -25.398438 13.285156 -28.425781 C 10.324219 -31.386719 5.988281 -34.136719 5.988281 -38.542969 L 5.988281 -38.816406 C 6.195312 -41.847656 7.019531 -45.425781 10.117188 -46.871094 C 10.945312 -47.351562 11.839844 -47.421875 12.871094 -47.421875 C 15.347656 -47.421875 17.824219 -46.527344 19.132812 -44.597656 C 20.234375 -42.464844 20.992188 -40.539062 21.542969 -38.265625 C 21.613281 -37.785156 21.816406 -37.578125 22.09375 -37.578125 C 23.125 -37.578125 23.609375 -37.992188 23.609375 -38.816406 L 23.609375 -39.164062 C 23.609375 -43.222656 22.230469 -46.390625 18.996094 -48.660156 C 17.277344 -49.96875 15.140625 -50.3125 13.007812 -50.3125 C 12.527344 -50.3125 12.183594 -50.242188 11.699219 -50.242188 C 9.566406 -50.035156 8.671875 -49.625 7.089844 -48.316406 C 4.613281 -46.390625 2.820312 -42.398438 2.820312 -39.09375 C 2.820312 -37.441406 3.167969 -35.789062 3.921875 -34.414062 C 6.46875 -29.527344 11.425781 -26.910156 14.730469 -22.710938 C 17.480469 -19.066406 22.09375 -14.246094 22.09375 -9.566406 C 22.09375 -8.535156 22.023438 -7.984375 21.816406 -7.226562 C 20.921875 -3.578125 16.65625 -1.789062 13.285156 -1.789062 C 11.976562 -1.789062 10.945312 -2.203125 9.636719 -2.683594 C 7.777344 -3.234375 6.332031 -5.988281 5.78125 -8.121094 C 5.4375 -9.5 5.09375 -10.945312 5.09375 -12.390625 L 5.09375 -14.246094 C 5.160156 -15.074219 5.230469 -15.625 5.230469 -16.175781 C 5.230469 -16.65625 5.300781 -16.929688 5.09375 -17.414062 C 4.613281 -17.894531 3.992188 -18.101562 3.714844 -18.101562 C 2.546875 -18.101562 2.339844 -15.074219 2.339844 -14.316406 L 2.339844 -13.351562 C 2.339844 -10.667969 2.617188 -8.121094 3.511719 -5.644531 C 5.160156 -1.03125 9.84375 1.101562 14.453125 1.101562 C 15.554688 1.101562 16.65625 0.964844 17.6875 0.6875 C 20.785156 -0.0703125 24.433594 -4.199219 24.984375 -7.15625 C 25.191406 -7.914062 25.121094 -8.601562 25.121094 -9.359375 C 25.121094 -12.59375 23.402344 -15.554688 22.023438 -18.515625 Z M 22.023438 -18.515625 "/></g></g></g><g fill="#dbdbdb" fill-opacity="1"><g transform="translate(140.701157, 71.526368)"><g><path d="M 24.847656 -19.132812 C 24.777344 -19.960938 24.777344 -20.855469 24.777344 -22.988281 C 24.777344 -28.699219 24.296875 -34.414062 18.652344 -36.617188 C 17.480469 -37.027344 16.105469 -37.234375 14.660156 -37.234375 C 10.875 -37.234375 6.402344 -35.722656 4.957031 -32.625 C 3.921875 -30.695312 3.714844 -28.496094 3.714844 -26.085938 C 3.714844 -22.710938 4.335938 -19.132812 4.542969 -16.175781 C 4.886719 -10.1875 4.957031 -4.335938 5.300781 1.71875 C 5.507812 4.128906 5.574219 6.261719 5.574219 8.671875 C 5.574219 10.460938 5.507812 12.25 5.367188 14.039062 C 5.367188 19.617188 5.230469 20.578125 5.230469 21.472656 C 5.230469 23.058594 5.644531 24.15625 7.226562 24.15625 L 7.707031 23.882812 C 8.257812 22.851562 8.191406 21.75 8.257812 20.441406 C 8.398438 19.132812 8.398438 17.894531 8.398438 16.65625 L 8.398438 14.179688 C 8.398438 9.152344 8.191406 4.128906 8.121094 -0.894531 C 10.046875 0.207031 12.871094 0.824219 15.140625 0.824219 C 17.894531 0.824219 20.578125 0 22.4375 -2.132812 C 24.433594 -4.40625 24.984375 -7.640625 24.984375 -10.945312 L 24.984375 -14.382812 C 24.984375 -16.035156 24.984375 -17.6875 24.847656 -19.132812 Z M 17.480469 -2.617188 C 16.726562 -2.410156 15.554688 -2.269531 14.730469 -2.269531 C 12.457031 -2.269531 10.117188 -3.234375 8.808594 -5.09375 C 7.363281 -8.191406 7.570312 -12.042969 7.363281 -15.484375 C 7.15625 -18.515625 6.675781 -21.613281 6.675781 -25.121094 C 6.675781 -27.394531 6.675781 -30.558594 8.257812 -32.003906 C 9.636719 -33.105469 11.289062 -34.207031 13.007812 -34.550781 C 13.488281 -34.621094 14.382812 -34.621094 14.867188 -34.621094 C 17.550781 -34.621094 20.097656 -32.832031 20.992188 -30.078125 C 21.886719 -27.394531 21.613281 -20.578125 21.886719 -19.203125 C 21.957031 -18.515625 22.023438 -17.757812 22.023438 -16.929688 C 22.023438 -15.832031 21.957031 -14.523438 21.957031 -13.285156 C 21.957031 -8.671875 21.40625 -3.921875 17.480469 -2.617188 Z M 17.480469 -2.617188 "/></g></g></g><g fill="#dbdbdb" fill-opacity="1"><g transform="translate(168.437192, 71.526368)"><g><path d="M 19.476562 -13.078125 C 19.476562 -14.933594 19.617188 -20.234375 19.617188 -23.675781 C 19.617188 -30.558594 18.03125 -36.339844 12.25 -36.339844 C 11.082031 -36.339844 9.910156 -36.066406 8.742188 -35.582031 C 6.8125 -34.894531 3.511719 -33.035156 3.511719 -30.558594 C 3.511719 -29.527344 3.785156 -28.976562 4.335938 -28.976562 C 5.09375 -28.976562 6.261719 -30.078125 7.019531 -30.835938 L 7.296875 -31.109375 C 8.464844 -32.210938 10.597656 -33.3125 12.457031 -33.3125 C 12.9375 -33.3125 13.351562 -33.242188 13.765625 -33.105469 C 15.898438 -32.210938 16.242188 -28.769531 16.449219 -26.5 C 16.449219 -26.292969 16.519531 -26.085938 16.519531 -25.878906 C 16.585938 -24.433594 16.585938 -22.917969 16.585938 -21.472656 L 16.585938 -20.304688 C 16.585938 -19.546875 16.519531 -19.132812 15.625 -18.925781 C 13.488281 -18.445312 10.253906 -18.238281 8.257812 -17.480469 C 3.921875 -16.035156 2.132812 -11.289062 2.132812 -7.363281 C 2.132812 -5.988281 2.476562 -4.613281 3.234375 -3.304688 C 4.542969 -1.171875 7.433594 0.6875 9.980469 0.894531 L 10.667969 0.894531 C 12.800781 0.894531 15.28125 0.964844 17.136719 -0.0703125 C 19.269531 -1.238281 19.820312 -3.234375 19.820312 -5.4375 C 19.820312 -7.847656 19.753906 -10.324219 19.546875 -12.457031 C 19.546875 -12.664062 19.476562 -12.871094 19.476562 -13.078125 Z M 15.003906 -2.476562 C 13.902344 -2.132812 12.871094 -2.066406 11.976562 -2.066406 L 11.21875 -2.066406 C 9.292969 -2.066406 8.121094 -2.753906 6.261719 -4.335938 C 5.367188 -5.160156 5.160156 -6.539062 5.160156 -7.570312 C 5.160156 -9.292969 5.507812 -10.945312 6.539062 -12.25 C 8.742188 -15.003906 13.007812 -15.691406 16.585938 -15.691406 C 16.519531 -15.625 16.519531 -15.417969 16.519531 -15.140625 C 16.519531 -14.523438 16.65625 -13.765625 16.65625 -13.007812 C 16.65625 -11.5625 16.929688 -7.296875 16.929688 -6.332031 C 16.929688 -4.679688 16.65625 -3.097656 15.003906 -2.476562 Z M 15.003906 -2.476562 "/></g></g></g><g fill="#dbdbdb" fill-opacity="1"><g transform="translate(191.630843, 71.526368)"><g><path d="M 18.925781 -8.257812 C 17.757812 -8.257812 17.621094 -6.539062 17.414062 -5.78125 C 16.65625 -3.785156 15.417969 -2.476562 13.285156 -2.269531 L 12.664062 -2.269531 C 10.738281 -2.269531 8.050781 -2.753906 7.15625 -4.613281 C 6.402344 -5.917969 6.332031 -7.503906 6.332031 -9.085938 C 6.332031 -9.84375 6.402344 -10.394531 6.402344 -11.148438 L 6.402344 -11.769531 C 6.46875 -12.800781 6.46875 -13.765625 6.46875 -14.796875 C 6.46875 -17.207031 6.332031 -19.617188 6.261719 -22.023438 C 6.261719 -22.507812 6.195312 -22.917969 6.195312 -23.402344 C 6.125 -24.433594 6.058594 -25.257812 6.058594 -26.292969 C 6.058594 -29.59375 6.746094 -32.484375 10.53125 -33.585938 C 11.011719 -33.792969 12.25 -33.792969 12.734375 -33.792969 C 14.453125 -33.792969 16.863281 -32.898438 17.414062 -31.109375 C 17.6875 -30.078125 17.824219 -28.976562 18.859375 -28.496094 C 19.132812 -28.355469 19.339844 -28.289062 19.546875 -28.289062 C 20.027344 -28.289062 20.371094 -28.632812 20.441406 -29.390625 C 20.511719 -29.59375 20.511719 -29.871094 20.511719 -30.214844 C 20.511719 -32.761719 18.652344 -35.515625 16.378906 -36.339844 C 15.484375 -36.546875 12.527344 -36.753906 11.425781 -36.753906 C 9.292969 -36.753906 7.019531 -36.066406 5.644531 -34.6875 C 3.648438 -32.691406 3.304688 -29.390625 3.234375 -26.703125 C 3.167969 -25.398438 3.167969 -24.363281 3.167969 -23.058594 C 3.167969 -20.578125 3.234375 -18.171875 3.441406 -15.761719 C 3.511719 -15.210938 3.511719 -14.660156 3.511719 -14.039062 C 3.511719 -12.59375 3.441406 -11.148438 3.441406 -9.566406 C 3.441406 -7.089844 3.648438 -4.613281 5.09375 -2.753906 C 6.8125 -0.480469 10.046875 0.964844 13.144531 0.964844 C 15.28125 0.964844 17.34375 0.273438 18.722656 -1.308594 C 19.546875 -2.339844 20.855469 -4.542969 20.855469 -6.261719 C 20.855469 -7.296875 20.371094 -8.050781 18.925781 -8.257812 Z M 18.925781 -8.257812 "/></g></g></g><g fill="#dbdbdb" fill-opacity="1"><g transform="translate(214.755689, 71.526368)"><g><path d="M 20.371094 -8.257812 C 19.546875 -8.191406 18.925781 -7.640625 18.515625 -6.605469 L 18.445312 -6.332031 C 18.238281 -5.710938 18.375 -4.75 17.964844 -3.921875 C 17.277344 -2.617188 15.96875 -2.203125 14.382812 -2.203125 C 7.847656 -2.203125 5.507812 -5.230469 5.507812 -11.355469 C 5.507812 -13.285156 5.367188 -14.730469 5.367188 -16.585938 C 5.367188 -17.207031 5.367188 -17.894531 5.4375 -18.652344 C 7.296875 -18.996094 9.359375 -19.132812 14.246094 -19.132812 L 15.210938 -19.132812 L 15.761719 -19.066406 C 16.378906 -18.996094 17.207031 -18.789062 18.238281 -18.789062 C 19.410156 -18.789062 20.234375 -19.203125 20.648438 -20.027344 L 20.714844 -20.234375 C 19.820312 -33.449219 18.445312 -36.960938 11.148438 -36.960938 C 5.023438 -36.960938 2.203125 -33.3125 2.203125 -21.75 C 2.203125 -16.3125 2.339844 -6.332031 4.128906 -4.199219 L 4.265625 -3.921875 C 5.988281 -0.273438 9.910156 0.757812 13.285156 0.757812 L 13.558594 0.757812 C 17.757812 0.414062 21.265625 -0.34375 21.265625 -6.195312 C 21.265625 -7.296875 20.992188 -7.984375 20.371094 -8.257812 Z M 7.226562 -32.484375 C 7.984375 -33.519531 9.222656 -33.863281 11.082031 -34.070312 L 11.632812 -34.070312 C 13.214844 -34.070312 13.902344 -33.929688 14.933594 -33.378906 C 16.242188 -32.625 16.726562 -30.902344 16.929688 -28.21875 C 17.136719 -27.046875 17.207031 -24.984375 17.277344 -21.75 C 15.347656 -21.679688 13.835938 -21.613281 12.25 -21.613281 C 9.429688 -21.75 7.296875 -21.679688 5.4375 -21.75 C 5.300781 -22.917969 5.230469 -24.15625 5.230469 -25.535156 C 5.230469 -28.011719 5.644531 -30.285156 7.226562 -32.484375 Z M 7.226562 -32.484375 "/></g></g></g><g fill="#dbdbdb" fill-opacity="1"><g transform="translate(237.821812, 71.526368)"><g><path d="M 22.988281 -25.671875 C 26.703125 -28.976562 26.636719 -32.554688 26.636719 -37.921875 C 26.636719 -48.796875 18.171875 -49.832031 13.214844 -49.832031 C 12.664062 -49.832031 12.042969 -49.761719 11.632812 -49.691406 L 8.191406 -49.691406 C 6.46875 -49.691406 3.578125 -49.761719 3.578125 -46.941406 C 3.578125 -45.21875 3.511719 -42.535156 3.441406 -40.609375 C 3.371094 -38.75 3.371094 -37.097656 3.371094 -35.859375 C 3.371094 -33.105469 3.441406 -30.972656 3.511719 -28.769531 C 3.578125 -26.703125 3.578125 -24.707031 3.578125 -22.09375 L 3.578125 -19.753906 C 3.578125 -18.789062 3.511719 -17.894531 3.511719 -16.929688 L 3.511719 -12.042969 C 3.511719 0.207031 3.648438 0.0703125 7.707031 0.0703125 L 8.878906 0.0703125 C 9.429688 0.0703125 10.1875 0.136719 11.082031 0.207031 C 12.113281 0.273438 13.421875 0.414062 14.589844 0.414062 C 15.625 0.414062 16.449219 0.34375 17.136719 0.273438 C 23.675781 -0.6875 27.1875 -2.339844 27.1875 -11.976562 C 27.1875 -17.824219 25.808594 -22.574219 22.988281 -25.671875 Z M 10.875 -44.804688 C 11.355469 -44.804688 12.113281 -44.804688 12.59375 -44.875 C 20.027344 -44.667969 21.335938 -40.402344 21.335938 -35.722656 C 21.335938 -31.867188 20.027344 -28.699219 16.863281 -28.148438 C 15.347656 -28.425781 13.902344 -28.425781 11.492188 -28.425781 L 8.535156 -28.425781 L 8.601562 -34.414062 C 8.671875 -37.234375 8.671875 -40.195312 8.671875 -42.398438 L 8.671875 -44.597656 L 8.949219 -44.597656 C 9.636719 -44.804688 10.253906 -44.804688 10.875 -44.804688 Z M 21.542969 -11.769531 C 21.542969 -6.8125 20.371094 -4.886719 15.074219 -4.886719 L 13.902344 -4.886719 C 13.558594 -4.886719 13.144531 -4.886719 12.664062 -4.957031 L 9.085938 -5.230469 L 9.015625 -9.085938 L 9.015625 -10.945312 C 9.015625 -11.492188 8.949219 -12.527344 8.949219 -15.210938 L 8.949219 -17.6875 C 8.949219 -17.964844 8.878906 -18.308594 8.878906 -18.582031 L 8.878906 -21.335938 C 8.878906 -21.816406 8.808594 -22.300781 8.949219 -22.988281 C 9.980469 -23.125 11.011719 -23.125 12.25 -23.125 L 15.003906 -23.125 C 15.417969 -23.125 15.832031 -23.058594 16.378906 -23.058594 C 21.0625 -23.058594 21.542969 -17.550781 21.542969 -13.835938 Z M 21.542969 -11.769531 "/></g></g></g><g fill="#dbdbdb" fill-opacity="1"><g transform="translate(268.5861, 71.526368)"><g><path d="M 12.113281 -3.714844 C 9.84375 -4.542969 8.398438 -6.332031 8.398438 -15.417969 L 8.398438 -20.714844 C 8.398438 -23.675781 8.464844 -30.078125 8.464844 -48.109375 C 8.464844 -50.175781 6.8125 -50.726562 5.988281 -50.726562 C 4.199219 -50.726562 3.027344 -49.417969 3.027344 -47.214844 C 3.027344 -45.496094 3.097656 -42.808594 3.167969 -40.746094 C 3.234375 -37.855469 3.304688 -34.621094 3.304688 -30.351562 L 3.304688 -14.867188 C 3.371094 -9.636719 3.441406 -2.066406 8.257812 0.414062 L 10.046875 1.238281 C 10.460938 1.308594 10.597656 1.375 11.082031 1.375 C 11.90625 1.375 12.59375 0.964844 13.144531 0.273438 L 13.695312 -1.03125 C 13.695312 -1.308594 13.558594 -1.789062 13.421875 -1.996094 Z M 12.113281 -3.714844 "/></g></g></g><g fill="#dbdbdb" fill-opacity="1"><g transform="translate(282.557356, 71.526368)"><g><path d="M 17.136719 -36.617188 C 8.191406 -36.617188 1.238281 -26.292969 1.238281 -19.132812 L 1.238281 -17.207031 C 2.066406 -6.332031 7.089844 -0.757812 17.070312 0.894531 L 18.308594 0.894531 C 29.800781 0.894531 32.691406 -8.398438 32.691406 -16.726562 C 32.691406 -19.132812 32.484375 -20.992188 32.003906 -22.574219 L 31.933594 -22.574219 C 30.214844 -29.390625 24.984375 -36.617188 17.136719 -36.617188 Z M 23.539062 -5.988281 C 22.507812 -4.957031 20.578125 -4.679688 18.101562 -4.679688 C 17.6875 -4.679688 17.277344 -4.679688 16.863281 -4.75 L 16.929688 -4.75 C 9.773438 -5.988281 6.402344 -11.21875 6.402344 -17.070312 C 6.402344 -19.476562 6.675781 -22.023438 7.847656 -24.296875 L 7.847656 -24.226562 C 10.1875 -28.699219 13.421875 -31.453125 17.136719 -31.453125 C 18.859375 -31.453125 20.511719 -30.765625 22.164062 -29.320312 L 24.15625 -27.394531 C 26.152344 -24.570312 27.324219 -20.785156 27.324219 -17.34375 L 27.324219 -16.519531 C 27.046875 -11.90625 26.085938 -8.257812 23.539062 -5.988281 Z M 23.539062 -5.988281 "/></g></g></g><g fill="#dbdbdb" fill-opacity="1"><g transform="translate(317.31344, 71.526368)"><g><path d="M 6.261719 -2.269531 C 7.984375 -0.136719 10.945312 0.894531 13.488281 0.894531 C 15.691406 0.894531 17.550781 0.136719 19.132812 -0.894531 C 19.132812 1.375 19.203125 2.753906 19.269531 4.957031 C 19.339844 6.746094 19.410156 8.328125 19.410156 9.429688 C 19.410156 13.144531 18.308594 15.625 18.03125 15.898438 C 17.414062 16.65625 15.96875 16.929688 14.589844 16.929688 C 9.015625 16.929688 8.949219 13.007812 8.808594 9.773438 C 8.742188 6.746094 8.601562 4.128906 5.300781 4.128906 C 3.921875 4.957031 3.371094 5.710938 3.234375 6.953125 C 3.578125 14.589844 3.855469 15.691406 5.507812 18.238281 C 7.296875 20.992188 11.632812 22.164062 14.453125 22.164062 C 20.027344 22.164062 24.640625 19.960938 24.640625 9.152344 C 24.640625 7.296875 24.570312 5.710938 24.503906 4.335938 C 24.433594 3.304688 24.433594 2.410156 24.433594 1.582031 C 24.363281 0.34375 24.433594 -0.550781 24.433594 -1.308594 C 24.433594 -1.789062 24.503906 -2.339844 24.503906 -2.753906 L 24.570312 -7.503906 L 24.570312 -8.398438 C 24.570312 -10.046875 24.503906 -11.5625 24.433594 -13.144531 C 24.433594 -14.730469 24.363281 -16.242188 24.363281 -17.757812 L 24.433594 -27.253906 C 24.433594 -29.390625 23.402344 -32.832031 21.75 -34.277344 L 20.714844 -35.238281 C 18.925781 -36.203125 16.929688 -36.753906 14.660156 -36.753906 C 9.910156 -36.753906 4.40625 -33.863281 3.167969 -29.457031 C 2.617188 -27.53125 2.546875 -25.601562 2.546875 -23.609375 L 2.546875 -20.578125 C 2.546875 -19.617188 2.617188 -18.859375 2.617188 -17.964844 L 2.617188 -17.136719 C 2.617188 -16.519531 2.546875 -15.691406 2.546875 -14.867188 C 2.546875 -11.011719 3.027344 -5.230469 6.261719 -2.269531 Z M 8.191406 -21.0625 C 8.191406 -22.164062 8.257812 -22.988281 8.328125 -23.953125 L 8.328125 -26.152344 C 8.328125 -29.25 10.253906 -31.589844 14.523438 -31.589844 C 19.066406 -31.589844 19.339844 -27.875 19.339844 -23.402344 C 19.339844 -21.472656 19.339844 -19.683594 19.269531 -18.101562 C 19.269531 -16.726562 19.203125 -15.417969 19.203125 -14.109375 C 19.203125 -13.488281 19.066406 -12.800781 18.996094 -12.25 C 18.925781 -11.839844 18.925781 -11.289062 18.925781 -10.875 C 18.925781 -7.433594 16.585938 -4.199219 13.421875 -4.199219 C 10.945312 -4.199219 9.152344 -6.605469 8.464844 -8.257812 C 8.050781 -9.152344 7.984375 -10.804688 8.050781 -12.9375 Z M 8.191406 -21.0625 "/></g></g></g><g clip-path="url(#d3f364763e)"><path fill="#da3843" d="M 76.15625 12.277344 C 81.046875 14.003906 85.503906 16.59375 89.246094 19.902344 C 93.128906 23.351562 96.292969 27.667969 98.304688 32.703125 C 102.765625 43.203125 101.46875 54.851562 95.71875 65.351562 C 90.25 75.5625 80.328125 84.625 67.527344 89.945312 C 54.726562 95.269531 41.351562 95.84375 30.132812 92.535156 C 18.769531 89.082031 9.5625 81.746094 5.25 71.25 C 0.933594 60.605469 2.226562 48.953125 7.835938 38.597656 C 13.445312 28.242188 23.371094 19.324219 36.171875 14.003906 C 40.628906 12.132812 45.378906 10.839844 49.835938 9.976562 C 54.152344 9.402344 58.320312 9.257812 62.347656 9.402344 L 62.347656 9.257812 C 63.066406 7.53125 64.507812 6.09375 66.230469 5.375 C 68.101562 4.65625 69.972656 4.65625 71.699219 5.375 C 73.421875 6.09375 74.863281 7.386719 75.582031 9.257812 C 76.011719 10.265625 76.15625 11.273438 76.15625 12.277344 Z M 52.28125 40.039062 C 55.445312 40.039062 58.320312 41.332031 60.480469 43.34375 C 62.636719 45.503906 63.929688 48.378906 63.929688 51.542969 C 63.929688 54.851562 62.636719 57.726562 60.480469 59.886719 C 58.320312 61.898438 55.445312 63.195312 52.28125 63.195312 C 49.117188 63.195312 46.097656 61.898438 44.082031 59.886719 C 41.925781 57.726562 40.628906 54.851562 40.628906 51.542969 C 40.628906 48.378906 41.925781 45.503906 44.082031 43.34375 C 46.097656 41.332031 49.117188 40.039062 52.28125 40.039062 Z M 58.179688 45.648438 C 56.738281 44.066406 54.582031 43.203125 52.28125 43.203125 C 49.980469 43.203125 47.820312 44.066406 46.238281 45.648438 C 44.800781 47.230469 43.792969 49.242188 43.792969 51.542969 C 43.792969 53.988281 44.800781 56.003906 46.238281 57.585938 C 47.820312 59.023438 49.980469 60.03125 52.28125 60.03125 C 54.582031 60.03125 56.738281 59.023438 58.179688 57.585938 C 59.761719 56.003906 60.621094 53.988281 60.621094 51.542969 C 60.621094 49.242188 59.761719 47.230469 58.179688 45.648438 Z M 55.589844 36.011719 C 55.445312 36.875 54.582031 37.449219 53.71875 37.304688 C 52.855469 37.160156 52.28125 36.441406 52.425781 35.578125 L 52.710938 32.703125 C 52.855469 31.839844 53.71875 31.265625 54.582031 31.40625 C 55.445312 31.550781 56.019531 32.269531 55.875 33.132812 Z M 63.066406 39.894531 C 62.492188 40.613281 61.484375 40.757812 60.765625 40.324219 C 60.046875 39.75 59.902344 38.742188 60.480469 38.023438 L 62.203125 35.722656 C 62.78125 35.003906 63.789062 35.003906 64.507812 35.433594 C 65.082031 36.011719 65.226562 37.015625 64.792969 37.734375 Z M 67.527344 47.230469 C 66.664062 47.515625 65.800781 47.085938 65.371094 46.367188 C 65.082031 45.503906 65.511719 44.496094 66.230469 44.207031 L 68.964844 43.203125 C 69.683594 42.769531 70.691406 43.203125 70.980469 44.066406 C 71.265625 44.785156 70.980469 45.789062 70.117188 46.078125 Z M 67.8125 55.570312 C 66.953125 55.570312 66.230469 54.707031 66.375 53.84375 C 66.519531 52.980469 67.382812 52.40625 68.246094 52.40625 L 70.980469 52.839844 C 71.839844 52.980469 72.417969 53.703125 72.417969 54.5625 C 72.273438 55.570312 71.410156 56.144531 70.546875 56.003906 Z M 63.789062 63.050781 C 63.066406 62.617188 62.925781 61.613281 63.5 60.894531 C 64.074219 60.171875 65.082031 60.03125 65.65625 60.605469 L 67.957031 62.332031 C 68.675781 62.90625 68.820312 63.914062 68.246094 64.488281 C 67.671875 65.207031 66.664062 65.351562 66.089844 64.917969 Z M 56.59375 67.652344 C 56.308594 66.789062 56.59375 65.925781 57.457031 65.496094 C 58.320312 65.207031 59.183594 65.496094 59.472656 66.359375 L 60.621094 68.945312 C 60.910156 69.808594 60.621094 70.816406 59.761719 71.105469 C 58.898438 71.390625 58.035156 71.105469 57.601562 70.242188 Z M 48.109375 67.941406 C 48.253906 67.078125 48.972656 66.359375 49.835938 66.503906 C 50.699219 66.644531 51.417969 67.363281 51.273438 68.226562 L 50.84375 71.105469 C 50.84375 71.96875 49.980469 72.542969 49.117188 72.542969 C 48.253906 72.398438 47.679688 71.535156 47.679688 70.671875 Z M 40.628906 63.914062 C 41.207031 63.195312 42.210938 63.050781 42.789062 63.625 C 43.507812 64.199219 43.652344 65.0625 43.21875 65.78125 L 41.492188 68.085938 C 40.917969 68.804688 39.910156 68.945312 39.191406 68.371094 C 38.472656 67.796875 38.328125 66.789062 38.90625 66.214844 Z M 36.171875 56.722656 C 36.890625 56.289062 37.898438 56.722656 38.183594 57.585938 C 38.617188 58.449219 38.183594 59.308594 37.324219 59.597656 L 34.734375 60.75 C 33.871094 61.035156 33.007812 60.605469 32.71875 59.886719 C 32.289062 59.023438 32.71875 58.160156 33.582031 57.726562 Z M 35.882812 48.234375 C 36.746094 48.378906 37.324219 49.097656 37.179688 49.960938 C 37.179688 50.824219 36.316406 51.542969 35.453125 51.398438 L 32.578125 50.96875 C 31.714844 50.96875 31.136719 50.105469 31.28125 49.242188 C 31.425781 48.378906 32.144531 47.804688 33.007812 47.804688 Z M 39.910156 40.757812 C 40.488281 41.332031 40.628906 42.339844 40.199219 42.914062 C 39.625 43.632812 38.617188 43.777344 37.898438 43.203125 L 35.597656 41.476562 C 35.019531 41.042969 34.878906 40.039062 35.308594 39.316406 C 35.882812 38.597656 36.890625 38.457031 37.609375 39.03125 Z M 47.101562 36.296875 C 47.390625 37.015625 46.960938 38.023438 46.238281 38.3125 C 45.378906 38.742188 44.371094 38.3125 44.082031 37.449219 L 43.074219 34.859375 C 42.644531 33.996094 43.074219 33.132812 43.9375 32.703125 C 44.65625 32.414062 45.664062 32.847656 45.953125 33.566406 Z M 44.800781 82.609375 C 39.191406 82.179688 34.015625 80.453125 29.554688 77.71875 C 24.953125 74.699219 21.359375 70.671875 19.199219 65.496094 C 16.035156 57.726562 16.753906 49.242188 20.636719 41.761719 C 24.523438 34.429688 31.28125 28.097656 40.054688 24.359375 L 40.34375 24.074219 L 40.628906 24.074219 C 49.546875 20.476562 58.753906 20.1875 66.664062 22.777344 C 74.71875 25.222656 81.335938 30.6875 84.5 38.457031 C 87.664062 46.078125 86.800781 54.5625 82.917969 62.042969 C 79.175781 69.523438 72.273438 75.851562 63.355469 79.589844 C 62.203125 80.023438 61.054688 80.453125 60.046875 80.886719 C 59.472656 81.027344 58.898438 81.171875 58.464844 81.316406 C 58.320312 82.179688 58.179688 83.042969 57.890625 83.90625 C 57.171875 85.488281 55.875 86.78125 54.152344 87.5 C 52.425781 88.21875 50.554688 88.21875 48.828125 87.5 C 47.246094 86.925781 45.808594 85.632812 45.089844 83.90625 L 45.089844 83.761719 C 44.945312 83.472656 44.800781 83.042969 44.800781 82.609375 Z M 57.746094 78.152344 C 58.179688 78.007812 58.609375 77.863281 59.039062 77.863281 C 60.046875 77.433594 61.054688 77.144531 62.0625 76.714844 C 70.257812 73.261719 76.589844 67.363281 80.183594 60.605469 C 83.636719 53.988281 84.355469 46.367188 81.476562 39.605469 C 78.746094 32.847656 72.847656 28.097656 65.65625 25.796875 C 58.464844 23.496094 49.835938 23.785156 41.492188 27.238281 C 33.296875 30.542969 26.96875 36.441406 23.515625 43.203125 C 20.0625 49.960938 19.34375 57.441406 22.078125 64.199219 C 23.945312 68.804688 27.253906 72.398438 31.28125 74.988281 C 35.164062 77.433594 39.769531 79.015625 44.800781 79.445312 C 44.945312 79.160156 45.089844 78.871094 45.089844 78.582031 C 45.808594 77 47.101562 75.5625 48.828125 74.84375 C 50.554688 74.125 52.570312 74.125 54.152344 74.84375 C 55.589844 75.417969 56.882812 76.570312 57.746094 78.152344 Z M 52.855469 77.71875 C 51.992188 77.433594 50.988281 77.433594 50.125 77.71875 C 49.117188 78.152344 48.398438 78.871094 48.109375 79.734375 C 47.679688 80.597656 47.679688 81.605469 48.109375 82.609375 C 48.542969 83.617188 49.261719 84.191406 50.125 84.625 C 50.988281 84.914062 51.992188 85.054688 52.855469 84.625 C 53.863281 84.191406 54.582031 83.472656 54.871094 82.609375 C 55.300781 81.746094 55.300781 80.742188 54.871094 79.734375 C 54.582031 78.871094 53.863281 78.152344 52.855469 77.71875 Z M 61.917969 12.566406 C 58.179688 12.421875 54.292969 12.566406 50.410156 13.140625 C 46.097656 13.859375 41.636719 15.15625 37.324219 16.882812 C 25.242188 21.914062 15.890625 30.402344 10.714844 40.039062 C 5.390625 49.675781 4.242188 60.316406 8.269531 69.953125 C 12.152344 79.589844 20.636719 86.351562 31.136719 89.371094 C 41.636719 92.535156 54.292969 91.960938 66.375 86.925781 C 78.457031 81.890625 87.664062 73.40625 92.984375 63.769531 C 98.164062 54.277344 99.457031 43.488281 95.429688 33.851562 C 93.558594 29.394531 90.683594 25.511719 87.085938 22.347656 C 83.78125 19.324219 79.753906 17.023438 75.292969 15.296875 C 74.429688 16.738281 73.28125 17.886719 71.699219 18.464844 C 69.972656 19.324219 67.957031 19.183594 66.230469 18.464844 C 64.648438 17.742188 63.210938 16.449219 62.347656 14.722656 C 62.203125 14.003906 61.917969 13.285156 61.917969 12.566406 Z M 70.546875 8.25 C 69.539062 7.964844 68.535156 7.820312 67.527344 8.25 C 66.519531 8.683594 65.800781 9.546875 65.371094 10.410156 C 64.9375 11.414062 64.9375 12.421875 65.371094 13.429688 C 65.800781 14.4375 66.519531 15.15625 67.527344 15.585938 C 68.390625 15.875 69.539062 16.019531 70.546875 15.585938 C 71.554688 15.15625 72.273438 14.292969 72.703125 13.429688 C 72.992188 12.566406 72.992188 11.414062 72.703125 10.410156 C 72.273438 9.402344 71.410156 8.683594 70.546875 8.25 Z M 70.546875 8.25 " fill-opacity="1" fill-rule="nonzero"/></g></svg>